<?xml version="1.0" encoding="UTF-8"?>
<svg xmlns="http://www.w3.org/2000/svg" xml:space="preserve" width="250" height="42.038" style="clip-rule:evenodd;fill-rule:evenodd;image-rendering:optimizeQuality;shape-rendering:geometricPrecision;text-rendering:geometricPrecision" viewBox="0 0 77.519 13.035" version="1.1" id="svg5">
  <defs id="defs5">
    <linearGradient id="id0" gradientUnits="userSpaceOnUse" x1="8.408" y1="39.491" x2="40.977" y2="6.921">
      <stop offset="0" style="stop-color:#04f" id="stop1"></stop>
      <stop offset="1" style="stop-color:#e10019" id="stop2"></stop>
    </linearGradient>
    <linearGradient id="id1" gradientUnits="userSpaceOnUse" x1="14.922" y1="32.977" x2="34.463" y2="13.435">
      <stop offset="0" style="stop-color:#04f" id="stop3"></stop>
      <stop offset=".49" style="stop-color:#cf3868" id="stop4"></stop>
      <stop offset="1" style="stop-color:#cc0018" id="stop5"></stop>
    </linearGradient>
    <style type="text/css" id="style1">.fil5{fill:#6464ff}</style>
  </defs>
  <g id="Layer_x0020_1" transform="translate(-8.269 -7.096)">
    <g id="_492426008" transform="translate(4.924 4.225) scale(.40453)">
      <path id="_492433312" d="m44.985 36.13 8.663-21.054h5.023l8.573 21.055H62.52l-2.135-5.534h-8.693l-2.166 5.534zm8.061-9.023h6.016l-3.008-7.76zm24.61 9.282c-1.342 0-2.596-.232-3.765-.696a9.72 9.72 0 0 1-3.068-1.986 9.485 9.485 0 0 1-2.037-2.939c-.481-1.134-.722-2.355-.722-3.66 0-1.324.24-2.545.722-3.662a9.206 9.206 0 0 1 2.063-2.965 9.437 9.437 0 0 1 3.042-1.96c1.169-.48 2.423-.72 3.764-.72.997 0 1.96.137 2.888.412.928.274 1.787.661 2.578 1.16a8.04 8.04 0 0 1 2.062 1.805l-2.526 2.5c-.653-.808-1.41-1.418-2.269-1.83a6.132 6.132 0 0 0-2.733-.619 5.58 5.58 0 0 0-2.269.464 5.388 5.388 0 0 0-1.83 1.238 5.515 5.515 0 0 0-1.212 1.856 5.999 5.999 0 0 0-.438 2.32c0 .825.146 1.599.438 2.32a5.673 5.673 0 0 0 1.237 1.857c.533.516 1.152.92 1.857 1.212a6.194 6.194 0 0 0 2.346.438c.945 0 1.83-.198 2.656-.593a6.69 6.69 0 0 0 2.19-1.702l2.45 2.424a8.48 8.48 0 0 1-2.037 1.779c-.79.498-1.65.885-2.578 1.16a10.27 10.27 0 0 1-2.81.387zm18.127 0c-1.34 0-2.596-.232-3.764-.696a9.719 9.719 0 0 1-3.068-1.986 9.484 9.484 0 0 1-2.037-2.939 9.275 9.275 0 0 1-.722-3.66c0-1.324.24-2.545.722-3.662a9.2 9.2 0 0 1 2.062-2.965 9.437 9.437 0 0 1 3.043-1.96c1.168-.48 2.423-.72 3.764-.72.997 0 1.96.137 2.888.412.928.274 1.787.661 2.578 1.16a8.037 8.037 0 0 1 2.063 1.805l-2.527 2.5c-.653-.808-1.41-1.418-2.269-1.83a6.134 6.134 0 0 0-2.733-.619c-.808 0-1.564.155-2.269.464a5.39 5.39 0 0 0-1.83 1.238 5.52 5.52 0 0 0-1.212 1.856 6.003 6.003 0 0 0-.438 2.32c0 .825.146 1.599.438 2.32a5.672 5.672 0 0 0 1.237 1.857c.533.516 1.152.92 1.857 1.212a6.193 6.193 0 0 0 2.346.438c.946 0 1.83-.198 2.656-.593a6.689 6.689 0 0 0 2.191-1.702l2.45 2.424a8.479 8.479 0 0 1-2.037 1.779c-.79.498-1.65.885-2.578 1.16-.911.258-1.849.387-2.811.387zm17.32 0c-1.633 0-3.051-.327-4.254-.98a6.833 6.833 0 0 1-2.759-2.784c-.653-1.22-.98-2.647-.98-4.28V18.084h3.739v10.26c0 .929.172 1.745.515 2.45.361.688.86 1.22 1.496 1.598.653.362 1.409.542 2.268.542.86 0 1.608-.18 2.244-.542a3.78 3.78 0 0 0 1.47-1.598c.36-.705.54-1.521.54-2.45v-10.26h3.713v10.26c0 1.617-.326 3.035-.98 4.255a6.957 6.957 0 0 1-2.784 2.81c-1.186.653-2.595.98-4.228.98z" style="fill:#1919cd"></path>
      <path id="_492433096" d="M124.346 36.13V15.077h4.361v9.414l9.204-9.414h5.325l-10.227 10.016 10.708 11.039h-5.836l-9.174-9.776v9.776zm20.702 0V18.085h3.558l8.972 11.653V18.084h3.506V36.13h-3.3l-9.204-12.066v12.066zm28.155.285c-1.341 0-2.587-.232-3.739-.697a9.802 9.802 0 0 1-3.042-1.985 9.812 9.812 0 0 1-2.037-2.965c-.481-1.134-.722-2.355-.722-3.66 0-1.307.24-2.519.722-3.636a9.406 9.406 0 0 1 2.037-2.965 9.227 9.227 0 0 1 3.042-1.985c1.152-.481 2.398-.722 3.739-.722 1.34 0 2.587.24 3.738.722a8.888 8.888 0 0 1 3.042 1.985 8.87 8.87 0 0 1 2.037 2.965c.481 1.117.722 2.329.722 3.635 0 1.306-.24 2.527-.722 3.661a9.229 9.229 0 0 1-2.037 2.965 9.418 9.418 0 0 1-3.042 1.985c-1.151.465-2.398.697-3.738.697zm0-3.43c.825 0 1.581-.145 2.268-.438a6.018 6.018 0 0 0 1.805-1.237c.516-.533.92-1.16 1.212-1.882a6.126 6.126 0 0 0 .438-2.32 6 6 0 0 0-.438-2.321 5.517 5.517 0 0 0-1.212-1.856 5.452 5.452 0 0 0-1.805-1.238 5.464 5.464 0 0 0-2.268-.464c-.808 0-1.556.155-2.243.464a5.453 5.453 0 0 0-1.805 1.238 5.517 5.517 0 0 0-1.212 1.856 5.935 5.935 0 0 0-.438 2.295c0 .842.146 1.624.438 2.346.292.721.696 1.35 1.212 1.882a6.018 6.018 0 0 0 1.805 1.237 5.673 5.673 0 0 0 2.243.439zm8.489 3.146 6.884-9.333-6.523-8.714h4.46l4.28 5.93 4.254-5.93h4.305l-6.42 8.714 6.962 9.333h-4.46l-4.719-6.549-4.718 6.549z" style="fill:#0000c8"></path>
      <path id="_492432592" d="m26.515 7.43 4.965 2.413 5.05 2.454c.4.206.867.607 1.283 1.136.389.495.659 1.006.778 1.43l1.242 5.53 1.23 5.478c.086.44.064 1.048-.086 1.695s-.396 1.2-.667 1.558l-3.518 4.38-3.51 4.369c-.29.344-.781.709-1.386.997-.61.29-1.21.443-1.66.448l-5.589-.019-5.671-.02c-.445-.023-1.019-.184-1.602-.473-.594-.294-1.077-.663-1.363-1.009l-3.468-4.38-3.434-4.338v-.001c-.287-.355-.551-.934-.707-1.615-.14-.615-.167-1.193-.094-1.626l1.287-5.55 1.262-5.44c.107-.44.396-.994.825-1.527.403-.499.85-.882 1.24-1.09l5.101-2.435 4.982-2.377h.023c.411-.199 1.035-.325 1.734-.322.698.003 1.321.132 1.73.334h.023zm-1.824 4.897 4.475 2.156 4.474 2.154 1.105 4.842 1.106 4.842-3.097 3.883-3.096 3.883h-9.933l-3.097-3.883-3.096-3.883 1.105-4.842 1.105-4.842 4.474-2.154z" style="fill:url(#id0)"></path>
      <path id="_492433504" d="m26.515 7.43 4.965 2.413 5.05 2.454c.4.206.867.607 1.283 1.136.389.495.659 1.006.778 1.43l1.242 5.53 1.23 5.478c.086.44.064 1.048-.086 1.695s-.396 1.2-.667 1.558l-3.518 4.38-3.51 4.369c-.29.344-.781.709-1.386.997-.61.29-1.21.443-1.66.448l-5.589-.019-5.671-.02c-.445-.023-1.019-.184-1.602-.473-.594-.294-1.077-.663-1.363-1.009l-3.468-4.38-3.434-4.338v-.001c-.287-.355-.551-.934-.707-1.615-.14-.615-.167-1.193-.094-1.626l1.287-5.55 1.262-5.44c.107-.44.396-.994.825-1.527.403-.499.85-.882 1.24-1.09l5.101-2.435 4.982-2.377h.023c.411-.199 1.035-.325 1.734-.322.698.003 1.321.132 1.73.334h.023zm-1.824 4.897 4.475 2.156 4.474 2.154 1.105 4.842 1.106 4.842-3.097 3.883-3.096 3.883h-9.933l-3.097-3.883-3.096-3.883 1.105-4.842 1.105-4.842 4.474-2.154z" style="fill:url(#id1)"></path>
      <path id="_492433360" style="fill:#fefefe" d="m18.623 20.025 6.009-2.975 6.01 2.975v7.113l-6.01 2.975-6.009-2.975v-7.113z"></path>
      <path id="_492426152" class="fil5" d="m24.632 22.56-4.99-2.435 4.99-2.435 4.99 2.435-4.99 2.435z"></path>
      <path id="_492426296" class="fil5" d="m19.194 20.59 5.103 2.506v6.12l-5.103-2.506z"></path>
      <path id="_492426032" class="fil5" d="m30.07 20.59-5.102 2.506v6.12l5.102-2.506z"></path>
    </g>
    <path id="rect5" style="fill:none" d="M0 0h211.057v48.165H0z"></path>
  </g>
</svg>
