<?xml version="1.0" encoding="UTF-8" standalone="no"?>
<svg xmlns:inkscape="http://www.inkscape.org/namespaces/inkscape" xmlns:sodipodi="http://sodipodi.sourceforge.net/DTD/sodipodi-0.dtd" xmlns="http://www.w3.org/2000/svg" xmlns:svg="http://www.w3.org/2000/svg" width="212" height="66" fill="none" viewBox="0 0 212 66" class="w-[103px] h-[33px]  undefined" version="1.1" id="svg8" sodipodi:docname="Hasura_logo.svg" inkscape:version="1.1.1 (3bf5ae0d25, 2021-09-20)">
  <defs id="defs12"></defs>
  <g id="g832" transform="matrix(2.0000478,0,0,2.0000478,1.0639876,-0.0015539)" style="stroke-width:0.499986">
    <path fill="#3970fd" d="M 30.232,11.397 C 31.144,8.527 30.595,2.8 28.827,0.687 A 0.53,0.53 0 0 0 27.971,0.755 L 25.793,4.208 A 1.665,1.665 0 0 1 23.554,4.576 14.85,14.85 0 0 0 15.334,2.106 14.85,14.85 0 0 0 7.112,4.576 1.67,1.67 0 0 1 4.874,4.208 L 2.695,0.755 A 0.532,0.532 0 0 0 1.84,0.686 c -1.77,2.118 -2.318,7.844 -1.405,10.71 0.303,0.955 0.385,1.963 0.207,2.943 -0.178,0.972 -0.357,2.146 -0.357,2.964 0,8.394 6.738,15.197 15.045,15.197 8.31,0 15.044,-6.806 15.044,-15.197 0,-0.818 -0.178,-1.992 -0.356,-2.964 a 6.155,6.155 0 0 1 0.214,-2.942 z M 15.33,29.107 C 8.906,29.107 3.683,23.828 3.683,17.339 a 11.774,11.774 0 0 1 6.67,-10.63 11.43,11.43 0 0 1 4.98,-1.132 c 1.783,0 3.47,0.403 4.98,1.134 a 11.779,11.779 0 0 1 6.671,10.631 C 26.98,23.828 21.754,29.108 15.33,29.108 Z" id="path2" style="stroke-width:0.524658"></path>
    <path fill="#3970fd" d="M 20.377,21.87 17.4,16.653 14.848,12.307 a 0.333,0.333 0 0 0 -0.29,-0.166 H 12.12 a 0.338,0.338 0 0 0 -0.289,0.511 l 2.443,4.146 -3.277,5.049 a 0.343,0.343 0 0 0 -0.014,0.345 0.334,0.334 0 0 0 0.296,0.177 h 2.456 a 0.331,0.331 0 0 0 0.282,-0.155 l 1.772,-2.795 1.59,2.784 c 0.06,0.104 0.17,0.17 0.288,0.17 h 2.421 a 0.327,0.327 0 0 0 0.289,-0.17 c 0.06,-0.1 0.06,-0.23 0,-0.335 z" id="path4" style="stroke-width:0.524658"></path>
    <path fill="#000000" d="m 43.293,8.5 h 3.111 v 17.063 h -3.111 v -7.27 h -3.515 v 7.274 H 36.667 V 8.5 h 3.111 v 7.41 h 3.515 z m 12.709,17.067 -0.65,-3.544 h -3.733 l -0.596,3.544 H 47.91 L 51.343,8.503 h 4.19 L 59.13,25.567 H 56 Z m -3.976,-5.899 h 2.893 l -1.485,-8.167 z m 14.034,2.787 v -3.651 c 0,-0.29 -0.053,-0.483 -0.16,-0.583 -0.107,-0.1 -0.307,-0.15 -0.597,-0.15 h -2.19 c -1.857,0 -2.785,-0.9 -2.785,-2.705 V 11.18 c 0,-1.786 0.971,-2.676 2.918,-2.676 h 2.975 c 1.947,0 2.919,0.894 2.919,2.676 v 2.38 h -3.136 v -1.947 c 0,-0.29 -0.054,-0.483 -0.161,-0.583 -0.107,-0.1 -0.308,-0.15 -0.597,-0.15 h -1.028 c -0.308,0 -0.515,0.05 -0.622,0.15 -0.107,0.1 -0.16,0.293 -0.16,0.583 v 3.433 c 0,0.29 0.053,0.482 0.16,0.582 0.107,0.1 0.314,0.15 0.622,0.15 h 2.135 c 1.894,0 2.84,0.883 2.84,2.651 v 4.463 c 0,1.786 -0.982,2.676 -2.947,2.676 h -2.921 c -1.965,0 -2.947,-0.894 -2.947,-2.676 v -2.355 h 3.107 v 1.919 c 0,0.29 0.054,0.482 0.161,0.582 0.107,0.1 0.314,0.15 0.621,0.15 h 1.03 c 0.288,0 0.485,-0.05 0.596,-0.15 0.11,-0.1 0.168,-0.293 0.168,-0.582 z M 77.494,8.5 h 3.108 v 14.387 c 0,1.787 -0.982,2.676 -2.947,2.676 h -3.297 c -1.964,0 -2.947,-0.893 -2.947,-2.676 V 8.5 h 3.111 v 13.955 c 0,0.29 0.054,0.482 0.161,0.582 0.107,0.1 0.307,0.15 0.597,0.15 h 1.432 c 0.307,0 0.514,-0.05 0.622,-0.15 0.107,-0.1 0.16,-0.293 0.16,-0.582 z m 8.788,10.414 v 6.653 H 83.174 V 8.5 h 6.272 c 1.965,0 2.947,0.893 2.947,2.676 v 5.059 c 0,1.479 -0.657,2.343 -1.975,2.597 l 2.84,6.735 h -3.354 l -2.597,-6.653 z m 0,-8.035 v 5.735 h 2.243 c 0.29,0 0.486,-0.05 0.596,-0.15 0.108,-0.1 0.161,-0.293 0.161,-0.583 v -4.27 c 0,-0.289 -0.053,-0.482 -0.16,-0.582 -0.108,-0.1 -0.308,-0.15 -0.597,-0.15 z m 15.519,14.688 -0.65,-3.544 h -3.732 l -0.597,3.544 H 93.715 L 97.147,8.503 h 4.19 l 3.597,17.064 z m -3.972,-5.899 h 2.894 l -1.486,-8.167 -1.407,8.167 z" id="path6" style="stroke-width:0.524658"></path>
  </g>
</svg>
