<?xml version="1.0" encoding="UTF-8"?>
<svg xmlns="http://www.w3.org/2000/svg" version="1.1" id="Layer_1" x="0" y="0" width="490.496" height="200" xml:space="preserve">
  <style type="text/css" id="style1">.st0{fill:#f38b00}.st1{fill:#009bde}</style>
  <g id="g11" transform="matrix(1.19546 0 0 1.19546 -7.89 -11.237)">
    <g id="g10">
      <g id="g9">
        <g id="g5">
          <path class="st0" d="M131.6 131.8h-16.8l14.5-29.3h.2zm.8 13.2 1 11.6h18.4l-6.1-67.7h-27.4l-34.7 67.7h18.8l5.8-11.6z" id="path1"></path>
          <path class="st0" id="polygon1" d="M210.5 109.2 192.3 132l11.2 24.6h-18.1l-7.3-19.2h-2.7l-4.1 19.2h-15.5l14.3-67.7h15.6l-8.1 38.1h2.7l13.2-17.8z"></path>
          <path class="st0" d="M230.4 137c5.1 0 8.4.4 7.6 4.3-1.1 5-3.2 5.8-9.7 5.8-2.4 0-6.8 0-5.7-5.1.9-4.3 4-5 7.8-5zm4.3 19.6h15.5l6.3-29.6c3.5-16.3-2.8-18.3-18.7-18.3-11.1 0-21.8-.1-25 14.6h15.5c.9-4.3 3.5-5.1 7.4-5.1 6.8 0 6.5 2.8 5.5 7.2l-1.6 7.5h-.7c-.6-5.4-7.4-5.3-11.8-5.3-11.2 0-17.9 3.5-20.3 14.9-2.6 12.1 3.2 14.7 14 14.7 5.4 0 12.7-1.1 15.2-7.6h.5z" id="path2"></path>
          <path class="st0" d="m281.6 109.2-1.4 6.7h.6c3.1-5.6 9.2-7.2 14.5-7.2 6.7 0 13.3 1.2 12.4 9.3h.7c2.3-6.8 9.2-9.3 15.2-9.3 10.9 0 15.6 4.5 13.2 15.5l-6.9 32.4h-15.5l5.8-27.4c.8-5 1.6-8.6-4.4-8.6s-8.1 4-9.1 9.1l-5.7 26.9h-15.5l6.1-28.7c.7-4.3 1.1-7.3-4.3-7.3-6.4 0-8.3 3.4-9.5 9.1l-5.7 26.9h-15.5l10.1-47.4z" id="path3"></path>
          <path class="st0" d="M361.2 137c5 0 8.4.4 7.6 4.3-1 5-3.2 5.8-9.7 5.8-2.3 0-6.8 0-5.7-5.1.9-4.3 4-5 7.8-5zm4.3 19.6H381l6.3-29.6c3.5-16.3-2.8-18.3-18.7-18.3-11.1 0-21.9-.1-25 14.6h15.5c.9-4.3 3.5-5.1 7.4-5.1 6.8 0 6.5 2.8 5.5 7.2l-1.4 7.5h-.7c-.6-5.4-7.4-5.3-11.8-5.3-11.2 0-17.9 3.5-20.3 14.9-2.6 12.1 3.2 14.7 14 14.7 5.4 0 12.7-1.1 15.3-7.6h.5z" id="path4"></path>
          <path class="st0" d="M403.4 156.6h-15.5l10-47.4h15.5z" id="path5"></path>
        </g>
        <path class="st1" d="M91.5 173C57.1 162.5 32 130.7 32 93.1 32 55 57.6 22.9 92.6 12.8c3.6-1 2.6-3.4-1.7-3.4-46.5 0-84.3 37.5-84.3 83.7s37.7 83.6 84.3 83.6c4.3 0 4.5-2.5.6-3.7z" id="path6"></path>
        <path class="st1" d="M48 112.6c-.2-2.2-.4-4.5-.4-6.8 0-36.7 29.7-66.4 66.4-66.4 34.7 0 45.1 15.5 46.4 14.5 1.4-1.1-12.6-31.8-53.3-31.8-36.7 0-66.4 29.7-66.4 66.4 0 8.5 1.6 16.6 4.5 24 1.2 3.2 3.1 3.2 2.8.1z" id="path7"></path>
        <path class="st1" d="M75.8 64.8c17.2-7.5 38.9-7.7 60.2-.3 14.3 5 22.6 12.1 23.3 11.8 1.1-.5-8.3-15.5-25.4-21.9-20.7-7.8-42.9-3.7-59.1 9-1.8 1.4-1.1 2.3 1 1.4z" id="path8"></path>
        <path class="st0" d="M416.9 96.1c0 4.8-3.9 8.7-8.7 8.7-4.8 0-8.7-3.9-8.7-8.7 0-4.8 3.9-8.7 8.7-8.7 4.8 0 8.7 3.9 8.7 8.7z" id="path9"></path>
      </g>
    </g>
  </g>
</svg>
