<?xml version="1.0" encoding="UTF-8"?>
<svg xmlns="http://www.w3.org/2000/svg" width="696.0" height="110.0" viewBox="0.0 0.0 696.0 110.0" fill="none">
  <path d="M418.129 108.344V69.357C418.129 48.9585 402.55 32.4223 383.332 32.4223H334.037V108.344H418.129Z" fill="#81E8FF"></path>
  <path d="M418.129 75.9219V36.9352C418.129 16.5367 402.55 0.00038743 383.332 0.00038743H334.037V75.9219H418.129Z" fill="#81E8FF"></path>
  <path fill-rule="evenodd" clip-rule="evenodd" d="M420.91 75.2603C422.806 75.2603 424.617 73.5603 424.617 71.1024V29.1202H454.273V71.1024C454.273 90.6586 439.487 106.805 420.91 106.805C402.333 106.805 387.546 90.6586 387.546 71.1024V40.3399C387.546 31.6292 394.185 24.5677 402.375 24.5677C410.564 24.5677 417.203 31.6292 417.203 40.3399V71.1024C417.203 73.5603 419.014 75.2603 420.91 75.2603Z" fill="#81E8FF"></path>
  <path d="M475.269 19.692C475.269 29.1222 468.063 36.7669 459.174 36.7669C450.284 36.7669 443.078 29.1222 443.078 19.692C443.078 10.2619 450.284 2.61719 459.174 2.61719C468.063 2.61719 475.269 10.2619 475.269 19.692Z" fill="#81E8FF"></path>
  <path d="M443.848 36.2949H474.506V105.407H443.848V36.2949Z" fill="#81E8FF"></path>
  <path d="M465.37 59.1441C465.37 36.9812 459.69 17.7286 454.957 10.0332C474.647 16.4134 497.631 12.6916 505.046 10.0332C501.418 14.9303 493.687 36.4775 493.687 59.1441C493.687 81.8106 501.418 97.5068 505.046 105.482C493.687 100.025 465.37 100.025 454.957 105.482C459.69 94.7084 465.37 81.3069 465.37 59.1441Z" fill="#81E8FF"></path>
  <path d="M536.961 101.775H507.577C492.202 101.775 479.738 88.9469 479.738 73.123V57.9417C479.738 42.7804 492.136 32.5328 507.577 32.5328L536.961 32.5328V101.775Z" fill="#81E8FF"></path>
  <path d="M554.886 33.9964C554.886 49.8144 548.461 62.6374 540.535 62.6374C532.61 62.6374 526.185 49.8144 526.185 33.9964C526.185 18.1785 532.61 5.35547 540.535 5.35547C548.461 5.35547 554.886 18.1785 554.886 33.9964Z" fill="#81E8FF"></path>
  <path d="M554.886 72.4259C554.886 88.2438 548.461 101.067 540.535 101.067C532.61 101.067 526.185 88.2438 526.185 72.4259C526.185 56.6079 532.61 43.7849 540.535 43.7849C548.461 43.7849 554.886 56.6079 554.886 72.4259Z" fill="#81E8FF"></path>
  <path d="M631.202 21.9123H594.173V106.564H631.202V58.0656L650.147 64.2381V25.4395C643.879 23.2619 639.872 22.457 631.202 21.9123Z" fill="#81E8FF"></path>
  <path fill-rule="evenodd" clip-rule="evenodd" d="M661.986 107.315C650.132 106.905 635.999 101.906 626.772 91.7162C620.843 85.1681 621.192 74.9108 627.551 68.8059C631.255 65.2509 636.179 63.8878 640.818 64.6623C640.482 63.9752 640.164 63.2608 639.869 62.518C637.435 56.3977 636.578 49.2915 638.841 42.4069C641.176 35.303 646.407 29.91 653.095 27.4053C666.184 22.5032 679.399 29.5376 688.118 39.6274C693.351 45.6825 693.37 54.6538 688.507 60.714C688.599 60.8067 688.69 60.9004 688.781 60.995C694.421 66.8721 696.66 74.7222 695.37 83.1768C693.918 92.7004 688.19 99.3986 681.393 103.136C675.099 106.596 668.073 107.525 661.986 107.315Z" fill="#81E8FF"></path>
  <path fill-rule="evenodd" clip-rule="evenodd" d="M563.261 24.7114H594.488V33.1004H606.707V45.6842H614.853V61.7633L595.167 61.7634V84.1343H603.313V100.213H595.167V110.001H579.553V100.213H550.363V61.7633H542.216V45.6842H550.363V33.1004H563.261V24.7114ZM557.83 54.0733H562.018V49.1796H557.83V54.0733Z" fill="#81E8FF"></path>
  <path d="M327.707 49.0054L322.458 30.8016L307.19 30.8335L292.606 27.9346L286.132 35.4698L268.359 32.283C268.316 14.4416 260.704 0 251.324 0C247.528 0 244.026 2.36607 241.196 6.36281C238.366 2.36607 234.863 0 231.068 0C227.272 0 224.063 2.17423 221.298 5.87255C218.5 4.02872 215.138 2.95226 211.517 2.95226C201.822 2.95226 193.961 10.6793 193.961 20.2075C193.961 23.3303 194.817 26.2399 196.281 28.7659H143.592C132.521 28.7659 123.52 37.4841 123.325 48.3233C123.141 38.5393 115.778 30.4925 106.192 29.0323V5.75531H69.432L53.1123 44.7422L36.76 5.75531H0V108.466H106.17V108.2C115.875 106.718 123.303 98.4904 123.303 88.5358C123.303 99.5455 132.38 108.466 143.581 108.466C146.444 108.466 149.166 107.88 151.638 106.825H225.7C227.381 107.891 229.181 108.466 231.057 108.466C234.852 108.466 238.355 106.1 241.185 102.103C244.015 106.1 247.518 108.466 251.313 108.466C257.375 108.466 262.688 102.434 265.713 93.3533L269.292 97.4566L286.067 107.635L293.571 99.7267L307.765 107.262L319.834 100.622L323.456 84.4538L319.032 66.719L327.707 48.9947V49.0054Z" fill="#81E8FF"></path>
  <path d="M679.253 51.4312L669.87 53.093C668.659 49.5271 665.681 45.9613 659.242 45.9613C653.357 45.9613 648.925 48.8693 648.96 52.9545C648.925 56.555 651.453 58.5283 657.303 59.9131L665.751 61.8518C675.514 64.1021 680.291 68.7412 680.291 76.2537C680.291 85.8781 671.394 92.6982 658.55 92.6982C646.606 92.6982 638.782 87.4013 637.051 77.9847L647.056 76.4614C648.302 81.689 652.284 84.3548 658.481 84.3548C665.266 84.3548 669.663 81.1351 669.663 77.0154C669.663 73.6918 667.274 71.4069 662.15 70.2645L653.149 68.2911C643.179 66.0755 638.609 61.0556 638.609 53.5084C638.609 44.0918 647.125 37.7563 659.138 37.7563C670.632 37.7563 677.106 43.1571 679.253 51.4312Z" fill="#0A0859"></path>
  <path d="M605.891 91.6249V38.4487H615.896V46.896H616.45C618.388 41.1837 623.72 37.6525 629.951 37.6525C631.267 37.6525 633.31 37.7563 634.348 37.8948V47.7961C633.517 47.5538 631.094 47.1729 628.948 47.1729C621.608 47.1729 616.242 52.1928 616.242 59.1514V91.6249H605.891Z" fill="#0A0859"></path>
  <path d="M575.489 92.6982C559.806 92.6982 550.182 81.8968 550.182 65.3831C550.182 49.0424 559.944 37.7563 574.762 37.7563C586.81 37.7563 598.303 45.2689 598.303 64.4829V68.1527H560.498C560.775 78.4002 566.73 84.1471 575.593 84.1471C581.478 84.1471 585.979 81.5852 587.848 76.5653L597.646 78.3309C595.291 86.9859 587.087 92.6982 575.489 92.6982ZM560.533 60.3978H588.16C588.125 52.2621 582.863 46.3075 574.831 46.3075C566.418 46.3075 560.948 52.8506 560.533 60.3978Z" fill="#0A0859"></path>
  <path d="M515.351 92.6636C502.438 92.6636 493.125 82.3469 493.125 65.1408C493.125 47.9 502.576 37.7564 515.42 37.7564C525.322 37.7564 528.853 43.7803 530.722 47.0692H531.345V20.7234H541.697V91.625H531.588V83.3509H530.722C528.853 86.7436 525.045 92.6636 515.351 92.6636ZM517.636 83.8355C526.568 83.8355 531.518 76.2191 531.518 65.0369C531.518 53.9239 526.672 46.5499 517.636 46.5499C508.289 46.5499 503.58 54.4778 503.58 65.0369C503.58 75.6998 508.392 83.8355 517.636 83.8355Z" fill="#0A0859"></path>
  <path d="M485.418 20.7234V91.625H475.066V20.7234H485.418Z" fill="#0A0859"></path>
  <path d="M454.689 91.625V38.4488H465.04V91.625H454.689ZM459.916 30.2438C456.316 30.2438 453.373 27.4742 453.373 24.0815C453.373 20.6887 456.316 17.8845 459.916 17.8845C463.482 17.8845 466.459 20.6887 466.459 24.0815C466.459 27.4742 463.482 30.2438 459.916 30.2438Z" fill="#0A0859"></path>
  <path d="M434.295 69.5721V38.4487H444.681V91.625H434.502V82.4161H433.948C431.49 88.0937 426.055 92.3174 418.058 92.3174C407.845 92.3174 400.609 85.4626 400.609 72.2724V38.4487H410.961V71.0261C410.961 78.2617 415.392 82.9007 421.797 82.9007C427.613 82.9007 434.329 78.6079 434.295 69.5721Z" fill="#0A0859"></path>
  <path d="M341.553 91.625V20.7234H367.518C382.612 20.7234 389.882 28.8591 389.882 39.3489C389.882 48.2116 384.447 52.643 377.938 54.3047V54.9971C384.966 55.3779 392.652 61.5749 392.652 72.5494C392.652 83.4201 385.208 91.625 368.729 91.625H341.553ZM352.25 82.4507H367.691C377.973 82.4507 382.023 77.9848 382.023 72.0301C382.023 65.2792 376.657 59.7401 368.072 59.7401H352.25V82.4507ZM352.25 51.3967H366.583C373.784 51.3967 379.392 47.0345 379.392 40.1798C379.392 34.2944 375.342 29.8284 366.86 29.8284H352.25V51.3967Z" fill="#0A0859"></path>
  <path d="M281.601 92.6636C268.688 92.6636 259.375 82.3468 259.375 65.1407C259.375 47.9 268.826 37.7563 281.67 37.7563C291.572 37.7563 295.103 43.7802 296.972 47.0691H297.595V38.4487H307.947V91.625H297.838V83.3508H296.972C295.103 86.7436 291.295 92.6636 281.601 92.6636ZM283.886 83.8355C292.818 83.8355 297.768 76.2191 297.768 65.0369C297.768 53.9239 292.922 46.5498 283.886 46.5498C274.539 46.5498 269.83 54.4778 269.83 65.0369C269.83 75.6998 274.642 83.8355 283.886 83.8355Z" fill="#0A0859"></path>
  <path d="M251.668 20.7234V91.625H241.316V20.7234H251.668Z" fill="#0A0859"></path>
  <path d="M231.291 20.7234V91.625H220.939V20.7234H231.291Z" fill="#0A0859"></path>
  <path d="M200.562 91.625V38.4488H210.913V91.625H200.562ZM205.789 30.2438C202.189 30.2438 199.246 27.4742 199.246 24.0815C199.246 20.6887 202.189 17.8845 205.789 17.8845C209.355 17.8845 212.332 20.6887 212.332 24.0815C212.332 27.4742 209.355 30.2438 205.789 30.2438Z" fill="#0A0859"></path>
  <path d="M149.562 91.625V84.5279L178.366 47.9346V47.4499H150.497V38.4487H191.28V45.9959L163.584 82.1391V82.6238H192.249V91.625H149.562Z" fill="#0A0859"></path>
  <path d="M118.227 92.6982C103.237 92.6982 93.4395 81.7237 93.4395 65.2792C93.4395 48.7309 103.237 37.7563 118.227 37.7563C133.218 37.7563 143.015 48.7309 143.015 65.2792C143.015 81.7237 133.218 92.6982 118.227 92.6982ZM118.262 84.0086C127.99 84.0086 132.56 75.4575 132.56 65.2446C132.56 55.0663 127.99 46.4113 118.262 46.4113C108.465 46.4113 103.895 55.0663 103.895 65.2446C103.895 75.4575 108.465 84.0086 118.262 84.0086Z" fill="#0A0859"></path>
  <path d="M10.1406 20.7234H23.1231L45.6953 75.8383H46.5262L69.0984 20.7234H82.0809V91.625H71.9026V40.3183H71.2448L50.3344 91.5212H41.8871L20.9767 40.2837H20.3189V91.625H10.1406V20.7234Z" fill="#0A0859"></path>
</svg>
