<?xml version="1.0" encoding="UTF-8" standalone="no"?>
<svg xmlns:inkscape="http://www.inkscape.org/namespaces/inkscape" xmlns:sodipodi="http://sodipodi.sourceforge.net/DTD/sodipodi-0.dtd" xmlns="http://www.w3.org/2000/svg" xmlns:svg="http://www.w3.org/2000/svg" width="730.776" height="200" viewBox="0 0 730.776 200" fill="none" version="1.1" id="svg73" sodipodi:docname="LibLab_logo.svg" inkscape:version="1.2.2 (b0a84865, 2022-12-01)">
  <defs id="defs77"></defs>
  <g id="g194" transform="scale(2.4359201)">
    <path fill-rule="evenodd" clip-rule="evenodd" d="m 12.3566,0 v 18.5657 c 1.7968,-1.6414 4.1882,-2.6423 6.8116,-2.6423 h 9.9982 v 3.2907 h -9.9982 c -3.7593,0 -6.8117,3.0483 -6.8117,6.8117 v 5.4352 h 0.0055 v 8.8684 c 0,3.5412 -1.8219,6.655 -4.57745,8.4586 2.75395,1.8053 4.57195,4.9195 4.57195,8.4552 v 7.5633 6.7459 c 0,3.7593 3.0483,6.8117 6.8117,6.8117 h 9.9982 v 3.2907 h -9.9982 c -5.5821,0 -10.10237,-4.5271 -10.10237,-10.1024 l -2e-5,-3.938 V 57.2432 c 0,-3.7446 -3.02466,-6.7879 -6.76782,-6.8115 l -0.03839,1e-4 H 0 v -3e-4 -3.2904 -2e-4 h 2.25411 l 0.04456,10e-5 C 6.04,47.1199 9.0713,44.0797 9.0713,40.3294 V 35.7388 H 9.06583 v -9.713 c 0,-0.5069 0.03732,-1.005 0.10938,-1.4918 C 4.12951,22.9297 0.477219,18.2098 0.477219,12.6328 0.477219,6.62157 4.71907,1.62137 10.3695,0.421824 Z M 9.06589,4.3073 C 5.9331,5.77515 3.7679,8.94945 3.7679,12.6328 c 0,3.6853 2.16677,6.8657 5.29799,8.3323 z M 66.4662,67.6144 v 3.938 c 0,3.7593 -3.0483,6.8117 -6.8117,6.8117 h -9.9927 v 3.2907 h 9.9927 c 5.5822,0 10.1024,-4.5271 10.1024,-10.1024 v -6.7459 h -1e-4 v -7.5633 c 0,-3.7453 3.0258,-6.7891 6.77,-6.8115 l 0.0417,1e-4 h 2.2596 v -3e-4 -3.2904 -2e-4 h -2.2596 l -0.0413,10e-5 c -3.7403,-0.0223 -6.7704,-3.0621 -6.7704,-6.8116 v -4.5906 h 0.0056 v -9.713 c 0,-0.5069 -0.0374,-1.005 -0.1094,-1.4918 5.0457,-1.6043 8.698,-6.3242 8.698,-11.9012 0,-6.01123 -4.2419,-11.01143 -9.8924,-12.210976 L 66.4716,0 V 18.5657 C 64.6748,16.9243 62.2834,15.9234 59.66,15.9234 h -9.9982 v 3.2907 H 59.66 c 3.7593,0 6.8117,3.0483 6.8117,6.8117 v 5.4352 h -0.0056 v 8.8684 c 0,3.54 1.8207,6.6529 4.5747,8.4568 -2.7554,1.805 -4.5747,4.9201 -4.5747,8.457 V 67.6144 Z M 32.5118,63.6383 c -2.8646,0 -5.1883,-2.3237 -5.1883,-5.1883 h -3.2907 c 0,4.682 3.797,8.479 8.479,8.479 2.8037,0 5.29,-1.3615 6.8337,-3.4594 1.5437,2.0979 4.03,3.4594 6.8337,3.4594 4.682,0 8.4789,-3.797 8.4789,-8.479 h -3.2906 c 0,2.8646 -2.3237,5.1883 -5.1883,5.1883 -2.8647,0 -5.1883,-2.3237 -5.1883,-5.1883 v -6.7493 l 6.6699,-3.335 -1.4716,-2.9433 -6.8437,3.4219 -6.8437,-3.4219 -1.4717,2.9433 6.6701,3.335 V 58.45 h -1e-4 c 0,2.8646 -2.3237,5.1883 -5.1883,5.1883 z m 17.7149,-24.51 c 2.305,0 4.1736,-1.8686 4.1736,-4.1737 0,-2.305 -1.8686,-4.1737 -4.1736,-4.1737 -2.3051,0 -4.1737,1.8687 -4.1737,4.1737 0,2.3051 1.8686,4.1737 4.1737,4.1737 z M 32.6381,34.9546 c 0,2.3051 -1.8687,4.1737 -4.1737,4.1737 -2.3051,0 -4.1737,-1.8686 -4.1737,-4.1737 0,-2.305 1.8686,-4.1737 4.1737,-4.1737 2.305,0 4.1737,1.8687 4.1737,4.1737 z M 69.7623,20.9651 V 4.3073 c 3.1328,1.46785 5.298,4.64215 5.298,8.3255 0,3.6853 -2.1668,6.8657 -5.298,8.3323 z" fill="#000000" id="path59"></path>
    <path d="m 102.011,23.1237 h 12.27 V 81.475 h -12.27 z" fill="#000000" id="path61"></path>
    <path d="m 121.929,31.3001 c -1.413,-1.3082 -2.123,-2.9373 -2.123,-4.875 0,-1.9376 0.71,-3.5667 2.123,-4.8749 1.414,-1.3083 3.253,-1.9685 5.506,-1.9685 2.253,0 4.092,0.6294 5.506,1.8882 1.413,1.2589 2.123,2.8325 2.123,4.7207 0,2.0426 -0.71,3.7334 -2.123,5.0724 -1.414,1.3391 -3.253,2.0056 -5.506,2.0056 -2.253,0 -4.092,-0.6541 -5.506,-1.9685 z m -0.629,7.8616 h 12.27 V 81.4751 H 121.3 Z" fill="#000000" id="path63"></path>
    <path d="m 176.338,41.2474 c 3.228,1.808 5.752,4.3504 7.592,7.6271 1.833,3.2767 2.752,7.0903 2.752,11.4408 0,4.3504 -0.919,8.164 -2.752,11.4407 -1.84,3.2767 -4.364,5.8191 -7.592,7.6271 -3.222,1.8081 -6.802,2.7152 -10.74,2.7152 -5.82,0 -10.252,-1.8327 -13.295,-5.5044 v 4.875 h -11.72 V 23.1237 h 12.27 v 20.5241 c 3.092,-3.4063 7.339,-5.1094 12.745,-5.1094 3.932,0 7.512,0.9009 10.74,2.7152 z m -5.111,27.6021 c 2.019,-2.1228 3.031,-4.9675 3.031,-8.5342 0,-3.5668 -1.012,-6.4115 -3.031,-8.5343 -2.018,-2.1228 -4.604,-3.1842 -7.746,-3.1842 -3.141,0 -5.727,1.0614 -7.746,3.1842 -2.018,2.1228 -3.03,4.9675 -3.03,8.5343 0,3.5667 1.012,6.4114 3.03,8.5342 2.019,2.1228 4.605,3.1842 7.746,3.1842 3.142,0 5.728,-1.0614 7.746,-3.1842 z" fill="#000000" id="path65"></path>
    <path d="m 190.473,23.1237 h 12.27 V 81.475 h -12.27 z" fill="#000000" id="path67"></path>
    <path d="m 241.931,43.2159 c 3.512,3.1224 5.271,7.8246 5.271,14.1188 V 81.475 h -11.486 v -5.2699 c -2.308,3.9309 -6.61,5.8994 -12.9,5.8994 -3.253,0 -6.073,-0.5492 -8.456,-1.6538 -2.388,-1.0984 -4.209,-2.6226 -5.468,-4.5603 -1.259,-1.9376 -1.889,-4.1406 -1.889,-6.6028 0,-3.9308 1.481,-7.0224 4.444,-9.2809 2.963,-2.2523 7.536,-3.3816 13.727,-3.3816 h 9.752 c 0,-2.672 -0.815,-4.733 -2.438,-6.1708 -1.623,-1.444 -4.061,-2.1598 -7.314,-2.1598 -2.253,0 -4.469,0.3517 -6.647,1.0614 -2.179,0.7096 -4.025,1.6661 -5.543,2.8694 l -4.407,-8.5713 c 2.308,-1.6229 5.073,-2.8818 8.302,-3.7765 3.221,-0.8886 6.542,-1.3391 9.949,-1.3391 6.555,0 11.591,1.5612 15.103,4.6775 z M 231.47,72.3916 c 1.623,-0.9689 2.777,-2.4005 3.462,-4.2826 v -4.3257 h -8.419 c -5.036,0 -7.548,1.6537 -7.548,4.9551 0,1.5736 0.617,2.8201 1.845,3.7334 1.235,0.9194 2.926,1.3761 5.074,1.3761 2.148,0 3.956,-0.4813 5.586,-1.4563 z" fill="#000000" id="path69"></path>
    <path d="m 289.655,41.2474 c 3.228,1.808 5.753,4.3504 7.592,7.6271 1.833,3.2767 2.753,7.0903 2.753,11.4408 0,4.3504 -0.92,8.164 -2.753,11.4407 -1.839,3.2767 -4.364,5.8191 -7.592,7.6271 -3.221,1.8081 -6.801,2.7152 -10.739,2.7152 -5.821,0 -10.252,-1.8327 -13.295,-5.5044 v 4.875 H 253.9 V 23.1237 h 12.27 v 20.5241 c 3.093,-3.4063 7.339,-5.1094 12.746,-5.1094 3.932,0 7.511,0.9009 10.739,2.7152 z m -5.11,27.6021 c 2.018,-2.1228 3.03,-4.9675 3.03,-8.5342 0,-3.5668 -1.012,-6.4115 -3.03,-8.5343 -2.018,-2.1228 -4.605,-3.1842 -7.746,-3.1842 -3.142,0 -5.728,1.0614 -7.746,3.1842 -2.019,2.1228 -3.031,4.9675 -3.031,8.5343 0,3.5667 1.012,6.4114 3.031,8.5342 2.018,2.1228 4.604,3.1842 7.746,3.1842 3.141,0 5.728,-1.0614 7.746,-3.1842 z" fill="#000000" id="path71"></path>
  </g>
</svg>
