<?xml version="1.0" encoding="UTF-8" standalone="no"?>
<!-- Generator: Adobe Illustrator 28.1.0, SVG Export Plug-In . SVG Version: 6.00 Build 0)  -->
<svg xmlns:inkscape="http://www.inkscape.org/namespaces/inkscape" xmlns:sodipodi="http://sodipodi.sourceforge.net/DTD/sodipodi-0.dtd" xmlns="http://www.w3.org/2000/svg" xmlns:svg="http://www.w3.org/2000/svg" version="1.1" id="a" x="0px" y="0px" viewBox="0 0 227.94627 95" xml:space="preserve" sodipodi:docname="azul_logo.svg" width="227.94627" height="95" inkscape:version="1.2.2 (b0a84865, 2022-12-01)"><defs id="defs241"></defs>
<style type="text/css" id="style182">
	.st0{fill:#00BBEB;}
	.st1{fill:#001050;}
</style>

<g fill="#142241" id="g490" transform="scale(0.50767545)"><path d="m 196.2,156.9 -0.8,1 22.1,0.6 -23.3,1 -1.2,1.5 24.5,1.1 -26.1,1 -1.1,1.4 27.2,1.1 -28.9,1.2 -1,1.3 29.9,1.1 -31.7,1.2 -1,1.2 32.7,1.2 -34.5,1.2 -0.9,1.1 35.4,1.2 -37.3,1.3 -0.8,1 38.1,1.3 -39.9,1 -0.7,0.9 40.6,1.6 -42.2,0.5 -0.9,1.2 h 71.4 v -28.2 z" id="path478"></path><path d="M 194.6,149.5 240.7,88.6 H 240 L 192,147 236.1,88.6 h -0.8 l -46.2,56.2 42.5,-56.2 h -0.9 l -44.4,53.9 40.8,-53.9 H 226 l -42.5,51.7 39,-51.7 h -1.2 L 180.6,138.1 218,88.6 h -1.4 l -38.8,47.2 35.7,-47.2 H 212 l -37,45 34,-45 h -1.7 l -35.2,42.8 32.4,-42.8 h -1.1 l -59.8,75.9 v 20.6 h 25.8 l 76.5,-96.5 h -1.2 z" id="path480"></path><path d="m 131.3,185 c -5,1.6 -9.1,2 -16.4,2 -13.9,0 -24.6,-6.5 -29,-20.7 H 85.6 C 81.4,174.2 70.7,187 43.5,187 15.2,187.1 0,173.2 0,152 0,120.6 32.2,111.4 67.2,111.4 h 16.5 v -5.8 c 0,-13.3 -8.1,-22.2 -24.3,-22.2 -13.6,0 -22.2,6.8 -23.5,17.8 H 3.4 c 2.1,-29 24.6,-45 57.8,-45 37.4,0 57.3,19.6 57.3,52.1 v 41.3 c 0,5.2 2.4,7.8 6,7.8 2.2,0 4.5,-0.4 6.5,-1.3 z M 83.7,139.2 v -8.1 H 65.2 c -19.1,0 -30.3,5.5 -30.3,16.7 0,8.4 6.3,13.1 18.6,13.1 18.7,0 30.2,-11.5 30.2,-21.7 z" id="path482"></path><path d="m 449,184.6 c -5.4,1.8 -11.1,2.6 -16.8,2.5 -20.9,0 -31.7,-12.6 -31.7,-35.3 V 0 h 35.9 v 149.7 c 0,5 2.6,7.8 6.3,7.8 2.2,0 4.3,-0.4 6.3,-1.3 z" id="path484"></path><path d="m 391.3,156.2 c -2,0.9 -4.1,1.3 -6.3,1.3 -3.7,0 -6.3,-2.9 -6.3,-7.8 V 57.6 h -36.1 v 71.7 c 0,16 -10.2,26.7 -23.5,26.7 -14.4,0 -22,-9.4 -22,-24.3 v -74 H 261 V 140 c 0,26.4 14.9,47.1 44.2,47.1 15.8,0 30.6,-7.9 39.4,-21 3.8,13.7 13.9,21 29.9,21 5.7,0.2 11.4,-0.7 16.8,-2.5 z" id="path486"></path><path d="m 143.6,56.9 v 0.5 l 62.3,1.3 -62.3,1.3 v 1 l 62.3,1.2 -62.3,1.3 v 1 l 62.3,1.3 -62.3,1.3 v 1 l 62.3,1.3 -62.3,1.3 v 1 l 62.3,1.2 -62.3,1.3 v 1 l 62.3,1.3 -62.3,1.3 v 1 l 62.3,1.3 -62.3,1.2 v 1.1 l 62.3,1.2 -62.3,1.3 v 0.5 H 246 V 56.9 Z" id="path488"></path></g></svg>
